<svg width="71" height="21" viewBox="0 0 71 21" fill="none" xmlns="http://www.w3.org/2000/svg">
<path d="M7.816 20.34C6.80167 20.3438 5.79677 20.1453 4.8601 19.7561C3.92344 19.3668 3.07383 18.7946 2.361 18.073C1.64638 17.351 1.08232 16.4943 0.701564 15.5525C0.320807 14.6108 0.130943 13.6028 0.142996 12.587C0.142996 7.667 4.267 4.777 7.962 4.777C10.605 4.777 13.077 5.771 14.399 8.091L11.927 9.535C11.5004 8.88768 10.9186 8.35736 10.2346 7.99233C9.55065 7.6273 8.78625 7.43914 8.011 7.445C5.837 7.445 3.249 9.155 3.249 12.544C3.249 15.857 5.721 17.669 8.206 17.669C9.03907 17.6604 9.8541 17.4252 10.5637 16.9887C11.2733 16.5522 11.8507 15.9307 12.234 15.191L14.762 16.371C13.338 18.958 10.784 20.34 7.816 20.34ZM23.9 17.537C26.719 17.537 28.658 15.417 28.658 12.567C28.658 9.717 26.718 7.597 23.9 7.597C21.081 7.597 19.075 9.691 19.075 12.52C19.075 15.387 21.018 17.537 23.9 17.537ZM23.602 20.34C19.138 20.34 15.959 16.95 15.959 12.557C15.959 8.077 19.109 4.777 23.602 4.777C25.664 4.777 27.65 5.649 28.602 6.987V5.162H31.655V19.926H28.602V18.096C27.601 19.426 25.661 20.34 23.602 20.34ZM47.08 19.92V8.014H44.73V5.064H47.11V0.701H50.256V5.065H53.517V8.014H50.256V19.918H47.08V19.92ZM62.52 17.537C65.338 17.537 67.281 15.417 67.281 12.567C67.281 9.717 65.338 7.597 62.519 7.597C59.701 7.597 57.699 9.691 57.699 12.52C57.699 15.387 59.638 17.537 62.519 17.537H62.52ZM62.222 20.34C57.754 20.34 54.582 16.95 54.582 12.557C54.582 8.077 57.728 4.777 62.222 4.777C64.284 4.777 66.27 5.649 67.222 6.987V5.162H70.278V19.926H67.222V18.096C66.221 19.426 64.281 20.34 62.222 20.34ZM34.8 19.902V5.138H37.709V7.703C38.31 6.046 39.582 4.903 41.268 4.903C41.634 4.896 41.999 4.937 42.355 5.023V7.878C39.982 7.603 37.976 9.267 37.976 13.067V19.902H34.801H34.8Z" fill="black"/>
</svg>
